<?xml version="1.0" encoding="utf-8"?>
<!-- Generator: Adobe Illustrator 22.1.0, SVG Export Plug-In . SVG Version: 6.00 Build 0)  -->
<svg version="1.1" id="Layer_1" xmlns="http://www.w3.org/2000/svg" xmlns:xlink="http://www.w3.org/1999/xlink" x="0px" y="0px"
	 viewBox="0 0 170 50" style="enable-background:new 0 0 170 50;" xml:space="preserve">
<style type="text/css">
	.st0{fill:#1F2D3D;}
	.st1{fill:#8492A6;}
</style>
<g>
	<g>
		<path class="st0" d="M67.6,33.3c-2.2,2.8-5.9,4.7-9.8,4.7c-7.5,0-13-5.5-13-13c0-7.3,5.4-13,12.7-13c3.6,0,7,1.4,9.2,3.9l-1.5,1.5
			c-1.8-2-4.5-3.3-7.7-3.3C51.5,14.1,47,18.9,47,25c0,6.1,4.4,10.9,10.7,10.9c3.5,0,6.5-1.7,8.3-4L67.6,33.3z"/>
		<path class="st0" d="M86.9,12c7.2,0,12.6,5.6,12.6,13c0,7.4-5.4,13-12.6,13c-7.1,0-12.6-5.6-12.6-13C74.3,17.6,79.7,12,86.9,12z
			 M86.9,35.9C93,35.9,97.3,31,97.3,25S93,14.1,86.9,14.1c-6.1,0-10.4,4.9-10.4,10.9S80.8,35.9,86.9,35.9z"/>
		<path class="st0" d="M124.6,35.3c-2.1,1.5-4.7,2.4-8.7,2.4h-7.2V12.4h7.2c4,0,6.6,0.9,8.7,2.4c3.1,2.3,5,6.1,5,10.3
			C129.6,29.2,127.7,32.9,124.6,35.3z M123.5,16.6c-1.8-1.4-4.2-2.1-7.7-2.1h-4.9v21.2h4.9c3.5,0,5.9-0.7,7.7-2.1
			c2.5-1.9,4-5.1,4-8.4C127.4,21.6,125.9,18.5,123.5,16.6z"/>
		<path class="st0" d="M147.5,12.4l10.9,25.3h-2.2L153,30h-12.3l-3.3,7.6h-2.2l10.9-25.3H147.5z M141.5,28h10.5l-5.2-12.2L141.5,28z
			"/>
	</g>
	<g>
		<rect x="11.6" y="12" class="st1" width="26" height="26"/>
	</g>
</g>
</svg>
