<?xml version="1.0" encoding="utf-8"?>
<!-- Generator: Adobe Illustrator 22.1.0, SVG Export Plug-In . SVG Version: 6.00 Build 0)  -->
<svg version="1.1" id="Layer_1" xmlns="http://www.w3.org/2000/svg" xmlns:xlink="http://www.w3.org/1999/xlink" x="0px" y="0px"
	 viewBox="0 0 822 432" style="enable-background:new 0 0 822 432;" xml:space="preserve">
<style type="text/css">
	.st0{fill:#8492A6;}
	.st1{fill:none;stroke:#1F2D3D;stroke-width:5;stroke-miterlimit:10;}
	.st2{fill:#1F2D3D;}
	.st3{fill:none;stroke:#1F2D3D;stroke-width:5;stroke-miterlimit:10;stroke-dasharray:9.6,9.6;}
	.st4{clip-path:url(#SVGID_2_);}
	.st5{font-family:'Brown-Bold';}
	.st6{font-size:58px;}
	.st7{fill:#F9FAFC;stroke:#E5E9F2;stroke-width:2.7022;stroke-miterlimit:10;}
	.st8{font-family:'Brown-Regular';}
	.st9{font-size:33.5226px;}
</style>
<polygon class="st0" points="370.9,39.4 370.9,133.5 460,133.5 460,58.9 440.5,39.4 "/>
<g>
	<g>
		<line class="st1" x1="371" y1="86" x2="330" y2="86"/>
		<g>
			<polygon class="st2" points="333.9,72.8 311,86 333.9,99.2 			"/>
		</g>
	</g>
</g>
<polygon class="st0" points="221.9,39.4 221.9,133.5 311,133.5 311,58.9 291.5,39.4 "/>
<g>
	<g>
		<line class="st1" x1="222" y1="86" x2="181" y2="86"/>
		<g>
			<polygon class="st2" points="184.9,72.8 162,86 184.9,99.2 			"/>
		</g>
	</g>
</g>
<polygon class="st0" points="72.9,39.4 72.9,133.5 162,133.5 162,58.9 142.5,39.4 "/>
<g>
	<g>
		<line class="st1" x1="73" y1="86" x2="67" y2="86"/>
		<line class="st3" x1="57.4" y1="86" x2="23.8" y2="86"/>
		<line class="st1" x1="19" y1="86" x2="13" y2="86"/>
	</g>
</g>
<g>
	<rect x="526" y="56.5" class="st1" width="60.5" height="76.5"/>
	<rect x="587" y="56.5" class="st1" width="60.5" height="76.5"/>
	<rect x="648" y="56.5" class="st1" width="60.5" height="76.5"/>
	<g>
		<defs>
			<rect id="SVGID_1_" x="648" y="56.5" width="60.5" height="76.5"/>
		</defs>
		<clipPath id="SVGID_2_">
			<use xlink:href="#SVGID_1_"  style="overflow:visible;"/>
		</clipPath>
		<g class="st4">
			<text transform="matrix(1 0 0 1 660.667 95)" class="st2 st5 st6">7</text>
		</g>
		<g class="st4">
			<text transform="matrix(1 0 0 1 660.667 148)" class="st2 st5 st6">8</text>
		</g>
	</g>
	<text transform="matrix(1 0 0 1 541.667 114)" class="st2 st5 st6">2</text>
	<text transform="matrix(1 0 0 1 602.667 114)" class="st2 st5 st6">1</text>
	<text transform="matrix(1 0 0 1 723 114.3335)" class="st2 st5 st6">GB</text>
</g>
<g>
	<text transform="matrix(1 0 0 1 647.667 365)" class="st2 st5 st6">20</text>
	<text transform="matrix(1 0 0 1 730 365.3335)" class="st2 st5 st6">kB</text>
</g>
<path class="st7" d="M291.2,277.8H119.1c-10.7,0-19.4,8.7-19.4,19.4v73.9c0,10.7,8.7,19.4,19.4,19.4h172.2
	c10.7,0,19.4-8.7,19.4-19.4v-73.9C310.6,286.5,301.9,277.8,291.2,277.8z"/>
<text transform="matrix(1 0 0 1 126.7588 347.1094)" class="st2 st8 st9">zk-SNARK</text>
<polygon class="st0" points="370.9,287.4 370.9,381.5 460,381.5 460,306.9 440.5,287.4 "/>
<g>
	<g>
		<line class="st1" x1="371" y1="337.5" x2="330" y2="337.5"/>
		<g>
			<polygon class="st2" points="333.9,324.3 311,337.5 333.9,350.7 			"/>
		</g>
	</g>
</g>
</svg>
