<?xml version="1.0" encoding="utf-8"?>
<!-- Generator: Adobe Illustrator 22.1.0, SVG Export Plug-In . SVG Version: 6.00 Build 0)  -->
<svg version="1.1" id="Layer_1" xmlns="http://www.w3.org/2000/svg" xmlns:xlink="http://www.w3.org/1999/xlink" x="0px" y="0px"
	 viewBox="0 0 381 242" style="enable-background:new 0 0 381 242;" xml:space="preserve">
<style type="text/css">
	.st0{fill:#8492A6;}
	.st1{fill:#FAFAFA;}
</style>
<circle class="st0" cx="190.8" cy="120.2" r="113.9"/>
<g id="_x31_BZjSJ_1_">
	<g>
		<path class="st1" d="M190.9,130.7c-7.1,17.6-14,34.4-20.6,51.4c-1.1,2.8-2.4,3.6-5.4,3.6c-9.2-0.2-18.5-0.1-28.2-0.1
			c3.2-7.3,6.2-14.3,9.3-21.2c10.3-23.2,20.6-46.5,30.7-69.8c0.6-1.4,0.6-3.3,0.1-4.7c-1.2-3.6-2.7-7.2-4.4-10.6
			c-3.4-7-7.3-8.9-15-7.4c-1.1,0.2-2.2,0.3-3.6,0.6c0-8.2,0-16.3,0-24.5c14.5-5.6,33.2-2.6,41.4,15.3c5.8,12.8,10.9,25.9,16,39
			c6.2,15.9,12,32,18.1,48c3.7,9.7,5.9,10.9,16,8.8c0.6-0.1,1.3-0.3,2.2-0.5c0,8.3,0,16.5,0,25c-9.8,2.6-19.7,3.5-29.6-0.4
			c-6.5-2.6-10.4-7.9-12.8-14.1c-4.4-11.3-8.5-22.7-12.8-34.1C192,133.7,191.6,132.5,190.9,130.7z"/>
	</g>
</g>
</svg>
