<?xml version="1.0" encoding="utf-8"?>
<!-- Generator: Adobe Illustrator 22.1.0, SVG Export Plug-In . SVG Version: 6.00 Build 0)  -->
<svg version="1.1" id="Layer_1" xmlns="http://www.w3.org/2000/svg" xmlns:xlink="http://www.w3.org/1999/xlink" x="0px" y="0px"
	 viewBox="0 0 500 429" style="enable-background:new 0 0 500 429;" xml:space="preserve">
<style type="text/css">
	.st0{fill:#8492A6;}
	.st1{fill:none;stroke:#8492A6;stroke-width:7;stroke-miterlimit:10;}
	.st2{fill:none;stroke:#8492A6;stroke-width:7;stroke-miterlimit:10;stroke-dasharray:11.709,11.709;}
	.st3{fill:none;stroke:#8492A6;stroke-width:7;stroke-miterlimit:10;stroke-dasharray:11.667,11.667;}
	.st4{fill:none;stroke:#8492A6;stroke-width:7;stroke-miterlimit:10;stroke-dasharray:11.8497,11.8497;}
	.st5{fill:none;stroke:#8492A6;stroke-width:7;stroke-miterlimit:10;stroke-dasharray:12.5235,12.5235;}
	.st6{fill:none;stroke:#8492A6;stroke-width:7;stroke-miterlimit:10;stroke-dasharray:12.0573,12.0573;}
	.st7{fill:none;stroke:#8492A6;stroke-width:7;stroke-miterlimit:10;stroke-dasharray:12.5197,12.5197;}
	.st8{fill:none;stroke:#8492A6;stroke-width:7;stroke-miterlimit:10;stroke-dasharray:12.3496,12.3496;}
</style>
<g>
	<circle class="st0" cx="63.7" cy="236.8" r="28.7"/>
</g>
<g>
	<circle class="st0" cx="188.3" cy="38.2" r="28.7"/>
</g>
<g>
	<circle class="st0" cx="217.3" cy="392.2" r="28.7"/>
</g>
<g>
	<circle class="st0" cx="326.3" cy="126.2" r="28.7"/>
</g>
<g>
	<circle class="st0" cx="432.3" cy="265.2" r="28.7"/>
</g>
<g>
	<g>
		<line class="st1" x1="64" y1="237" x2="67.2" y2="231.9"/>
		<line class="st2" x1="73.4" y1="222" x2="181.7" y2="48.1"/>
		<line class="st1" x1="184.8" y1="43.1" x2="188" y2="38"/>
	</g>
</g>
<g>
	<g>
		<line class="st1" x1="326.5" y1="126.5" x2="321.4" y2="123.3"/>
		<line class="st3" x1="311.6" y1="117" x2="198.5" y2="44.9"/>
		<line class="st1" x1="193.6" y1="41.7" x2="188.5" y2="38.5"/>
	</g>
</g>
<g>
	<g>
		<line class="st1" x1="64.5" y1="237.5" x2="70" y2="235.2"/>
		<line class="st4" x1="80.9" y1="230.5" x2="315.5" y2="131.2"/>
		<line class="st1" x1="321" y1="128.8" x2="326.5" y2="126.5"/>
	</g>
</g>
<g>
	<g>
		<line class="st1" x1="326.5" y1="126.5" x2="330.1" y2="131.3"/>
		<line class="st5" x1="337.7" y1="141.2" x2="425.1" y2="255.7"/>
		<line class="st1" x1="428.9" y1="260.7" x2="432.5" y2="265.5"/>
	</g>
</g>
<g>
	<g>
		<line class="st1" x1="326.5" y1="126.5" x2="324.2" y2="132.1"/>
		<line class="st6" x1="319.7" y1="143.2" x2="222" y2="383.4"/>
		<line class="st1" x1="219.8" y1="388.9" x2="217.5" y2="394.5"/>
	</g>
</g>
<g>
	<g>
		<line class="st1" x1="431.5" y1="265.5" x2="426.4" y2="268.6"/>
		<line class="st7" x1="415.6" y1="275.1" x2="228" y2="388.2"/>
		<line class="st1" x1="222.6" y1="391.4" x2="217.5" y2="394.5"/>
	</g>
</g>
<g>
	<g>
		<line class="st1" x1="432.5" y1="265.5" x2="426.5" y2="265"/>
		<line class="st8" x1="414.2" y1="264.1" x2="75.6" y2="237.5"/>
		<line class="st1" x1="69.5" y1="237" x2="63.5" y2="236.5"/>
	</g>
</g>
</svg>
