<?xml version="1.0" encoding="utf-8"?>
<!-- Generator: Adobe Illustrator 22.1.0, SVG Export Plug-In . SVG Version: 6.00 Build 0)  -->
<svg version="1.1" id="Layer_1" xmlns="http://www.w3.org/2000/svg" xmlns:xlink="http://www.w3.org/1999/xlink" x="0px" y="0px"
	 viewBox="0 0 822 432" style="enable-background:new 0 0 822 432;" xml:space="preserve">
<style type="text/css">
	.st0{fill:#8492A6;}
	.st1{fill:#1F2D3D;}
	.st2{clip-path:url(#SVGID_2_);}
	.st3{fill:#F9FAFC;stroke:#E5E9F2;stroke-width:2.7022;stroke-miterlimit:10;}
</style>
<polygon class="st0" points="370.9,39.4 370.9,133.5 460,133.5 460,58.9 440.5,39.4 "/>
<g>
	<rect x="330" y="83.5" class="st1" width="41" height="5"/>
	<g>
		<polygon class="st1" points="333.9,72.8 311,86 333.9,99.2 		"/>
	</g>
</g>
<polygon class="st0" points="221.9,39.4 221.9,133.5 311,133.5 311,58.9 291.5,39.4 "/>
<g>
	<rect x="181" y="83.5" class="st1" width="41" height="5"/>
	<g>
		<polygon class="st1" points="184.9,72.8 162,86 184.9,99.2 		"/>
	</g>
</g>
<polygon class="st0" points="72.9,39.4 72.9,133.5 162,133.5 162,58.9 142.5,39.4 "/>
<g>
	<rect x="67" y="83.5" class="st1" width="6" height="5"/>
	<path class="st1" d="M57.4,88.5h-9.6v-5h9.6V88.5z M38.2,88.5h-9.6v-5h9.6V88.5z"/>
	<rect x="13" y="83.5" class="st1" width="6" height="5"/>
</g>
<g>
	<path class="st1" d="M589,135.5h-65.5V54H589V135.5z M528.5,130.5H584V59h-55.5V130.5z"/>
	<path class="st1" d="M650,135.5h-65.5V54H650V135.5z M589.5,130.5H645V59h-55.5V130.5z"/>
	<path class="st1" d="M711,135.5h-65.5V54H711V135.5z M650.5,130.5H706V59h-55.5V130.5z"/>
	<g>
		<defs>
			<rect id="SVGID_1_" x="648" y="56.5" width="60.5" height="76.5"/>
		</defs>
		<clipPath id="SVGID_2_">
			<use xlink:href="#SVGID_1_"  style="overflow:visible;"/>
		</clipPath>
		<g class="st2">
			<path class="st1" d="M663.3,54.4H690V59l-17.5,36h-8.3l16.4-33.6h-17.3V54.4z"/>
		</g>
		<g class="st2">
			<path class="st1" d="M663.6,135.4c0-4.8,2.5-8.1,5.9-10.3c-1.7-1.6-3.2-3.8-3.2-7.1c0-6.2,5-11.2,11.9-11.2s11.9,5,11.9,11.2
				c0,3.3-1.5,5.6-3.2,7.1c3.4,2.2,5.9,5.5,5.9,10.3c0,7.4-6.4,13.2-14.5,13.2C669.9,148.6,663.6,142.8,663.6,135.4z M684.7,135.4
				c0-3.5-2.8-6.3-6.7-6.3s-6.7,2.8-6.7,6.3c0,3.5,2.8,6.2,6.7,6.2S684.7,138.9,684.7,135.4z M682.1,118c0-2.3-1.6-4.2-4.1-4.2
				c-2.4,0-4.1,1.9-4.1,4.2s1.6,4.2,4.1,4.2C680.5,122.2,682.1,120.3,682.1,118z"/>
		</g>
	</g>
	<g>
		<path class="st1" d="M544.3,82.2c1.7-5.6,6.8-9.4,12.8-9.4c7,0,13,5.2,13,12.5c0,4.9-2.5,8.5-5.2,11.7l-8.6,10h14.2v7H544v-4.6
			l14.3-16.2c3.1-3.5,4-5.9,4-7.9c0-2.8-2.2-5.5-5.3-5.5c-2.7,0-4.7,1.9-5.5,4.6L544.3,82.2z"/>
	</g>
	<g>
		<path class="st1" d="M605.9,79.2l9.9-5.8h5.5V114h-7.8V82.4l-7.5,4.2V79.2z"/>
	</g>
	<g>
		<path class="st1" d="M732.6,94c0,7.9,6,13.9,13.9,13.9c3.7,0,6.7-1.3,9-3.1v-8.8H745v-7h18.3v18c-3.6,4.6-9.6,7.8-17.1,7.8
			c-12.6,0-21.5-9.2-21.5-20.9s8.8-20.9,21.4-20.9c6,0,11.2,2.3,14.8,5.8l-5,5.3c-2.4-2.4-5.9-4.2-9.9-4.2
			C738.4,80.1,732.6,86.3,732.6,94z"/>
		<path class="st1" d="M785.2,73.7c4.6,0,7.1,1.1,9.1,2.8c2.3,2,3.8,4.9,3.8,8.2c0,2.7-1.3,5.4-2.6,6.8c3.6,1.8,6.1,5.9,6.1,10.4
			c0,3.4-1.4,6.6-3.7,8.8c-2.3,2.3-5.4,3.7-10.6,3.7h-15.8V73.7H785.2z M779.3,89.4h5.5c2.4,0,3.5-0.6,4.3-1.4
			c0.7-0.8,1.2-1.8,1.2-2.9c0-1.1-0.5-2.1-1.2-2.9c-0.8-0.9-1.9-1.4-4.3-1.4h-5.5V89.4z M787.1,107.4c2.7,0,4.2-0.7,5.2-1.8
			c0.9-1,1.5-2.3,1.5-3.7c0-1.4-0.5-2.7-1.5-3.7c-1-1.1-2.5-1.8-5.2-1.8h-7.8v11H787.1z"/>
	</g>
</g>
<g>
	<g>
		<path class="st1" d="M650.3,333.2c1.7-5.6,6.8-9.4,12.8-9.4c7,0,13,5.2,13,12.5c0,4.9-2.5,8.5-5.2,11.7l-8.6,10h14.2v7H650v-4.6
			l14.3-16.2c3.1-3.5,4-5.9,4-7.9c0-2.8-2.2-5.5-5.3-5.5c-2.7,0-4.7,1.9-5.5,4.6L650.3,333.2z"/>
		<path class="st1" d="M696.4,323.8c10.4,0,14.2,9.3,14.2,20.9c0,11.5-3.8,20.9-14.2,20.9s-14.2-9.3-14.2-20.9
			C682.2,333.2,686,323.8,696.4,323.8z M696.4,330.8c-4.7,0-6.4,6.3-6.4,13.9c0,7.7,1.7,13.9,6.4,13.9c4.7,0,6.4-6.3,6.4-13.9
			C702.8,337,701.1,330.8,696.4,330.8z"/>
	</g>
	<g>
		<path class="st1" d="M748.4,349.8l15.5,15.5h-10.2l-11.9-12.2v12.2h-7.5v-41.2h7.5v22.2l9.7-9.1h10.6L748.4,349.8z"/>
		<path class="st1" d="M783,324.7c4.6,0,7.1,1.1,9.1,2.8c2.3,2,3.8,4.9,3.8,8.2c0,2.7-1.3,5.4-2.6,6.8c3.6,1.8,6.1,5.9,6.1,10.4
			c0,3.4-1.4,6.6-3.7,8.8c-2.3,2.3-5.4,3.7-10.6,3.7h-15.8v-40.6H783z M777,340.4h5.5c2.4,0,3.5-0.6,4.3-1.5
			c0.7-0.8,1.2-1.8,1.2-2.9c0-1.1-0.5-2.1-1.2-2.9c-0.8-0.9-1.9-1.5-4.3-1.5H777V340.4z M784.8,358.4c2.7,0,4.2-0.7,5.2-1.8
			c0.9-1,1.5-2.3,1.5-3.7c0-1.4-0.5-2.7-1.5-3.7c-1-1.1-2.5-1.8-5.2-1.8H777v11H784.8z"/>
	</g>
</g>
<path class="st3" d="M291.2,277.8H119.1c-10.7,0-19.4,8.7-19.4,19.4v73.9c0,10.7,8.7,19.4,19.4,19.4h172.2
	c10.7,0,19.4-8.7,19.4-19.4v-73.9C310.6,286.5,301.9,277.8,291.2,277.8z"/>
<g>
	<path class="st1" d="M136.7,334.2h-8.1v-2.8h12.6v2l-8.7,10.9h9.4v2.8h-13.7v-2L136.7,334.2z"/>
	<path class="st1" d="M160.6,347.1h-4.3l-7.8-7.7v7.7h-3.2v-23.8h3.2v14.1l6.6-6h4.5l-7.9,7.1L160.6,347.1z"/>
	<path class="st1" d="M172.3,337.2v2.7h-10.1v-2.7H172.3z"/>
	<path class="st1" d="M178.3,341.2c1.4,1.7,3.3,3,5.7,3c2.2,0,4.1-1.4,4.1-3.5c0-3.6-5-4-8.1-6c-1.7-1.1-3-2.7-3-5.2
		c0-3.4,3-6.2,7.1-6.2c3,0,5.1,1.3,6.3,2.3l-2,2.4c-1.3-1.1-2.7-1.6-4.2-1.6c-1.9,0-3.9,1.1-3.9,3.2c0,3,5,3.6,8,5.6
		c1.6,1,3.1,2.7,3.1,5.4c0,4.1-3.2,6.8-7.3,6.8c-3.2,0-6.1-1.4-8.2-3.9L178.3,341.2z"/>
	<path class="st1" d="M199.2,329.9v17.2h-3.4v-23.5h2.3l14.1,17.2v-17.2h3.4v23.5h-2.3L199.2,329.9z"/>
	<path class="st1" d="M234.7,341.1h-9.9l-2.4,6h-3.5l9.7-23.5h2.3l9.7,23.5h-3.5L234.7,341.1z M226.1,337.9h7.2l-3.6-8.7
		L226.1,337.9z"/>
	<path class="st1" d="M247.2,336v11.1h-3.4v-23.5h8.2c2.1,0,3.5,0.5,4.6,1.4c1.4,1.1,2.3,2.9,2.3,4.8s-0.9,3.7-2.3,4.8
		c-0.7,0.6-1.6,1-2.7,1.2l8.4,11.2h-4.1l-8.3-11.1H247.2z M251.9,332.9c1.5,0,2.3-0.3,2.8-0.9c0.5-0.5,0.9-1.3,0.9-2.1
		s-0.3-1.6-0.9-2.1c-0.5-0.5-1.3-0.9-2.8-0.9h-4.7v6H251.9z"/>
	<path class="st1" d="M265.3,323.6h3.4v9.9l9.7-9.9h4.4l-10.6,10.9l11.3,12.6h-4.3l-10.5-11.7v11.7h-3.4V323.6z"/>
</g>
<polygon class="st0" points="370.9,287.4 370.9,381.5 460,381.5 460,306.9 440.5,287.4 "/>
<g>
	<rect x="330" y="335" class="st1" width="41" height="5"/>
	<g>
		<polygon class="st1" points="333.9,324.3 311,337.5 333.9,350.7 		"/>
	</g>
</g>
</svg>
