<?xml version="1.0" encoding="utf-8"?>
<!-- Generator: Adobe Illustrator 22.1.0, SVG Export Plug-In . SVG Version: 6.00 Build 0)  -->
<svg version="1.1" id="Layer_1" xmlns="http://www.w3.org/2000/svg" xmlns:xlink="http://www.w3.org/1999/xlink" x="0px" y="0px"
	 viewBox="0 0 500 287" style="enable-background:new 0 0 500 287;" xml:space="preserve">
<style type="text/css">
	.st0{fill:#8492A6;}
</style>
<g>
	<path class="st0" d="M110.6,7.4h3.5c29.8,0,53.9,24.2,53.9,53.9v0v53.9h-22V61.8c0,0-0.2-35.3-35.5-35.3S75.1,61.8,75.1,61.8v53.4
		h-22V61.3v0c0-29.8,24.2-53.9,53.9-53.9H110.6z"/>
	<path class="st0" d="M179.7,115.3H44.8c-10.4,0-18.9,8.5-18.9,18.9v122.5c0,10.4,8.5,18.9,18.9,18.9h131.6
		c10.4,0,18.9-8.5,18.9-18.9V130.9C195.3,122.3,188.3,115.3,179.7,115.3z M125.3,225.7H97l4-30.2c0,0-8.1-2-8.1-15.1
		c0-13.1,9.1-17.1,18.1-17.1s18.1,6,18.1,17.1s-8.1,15.1-8.1,15.1L125.3,225.7z"/>
</g>
<g>
	<path class="st0" d="M474.1,158.8l-44,102.7h-13.9l-44-102.7h20.7l9.7,22.7h41.2l9.7-22.7H474.1z M436.2,199.1h-26.1l13.1,30.4
		L436.2,199.1z"/>
</g>
<g>
	<path class="st0" d="M294.7,243.9v-24.6h-43.9v-17.6h43.9v-25.3h-43.3v-17.6h63.1v102.7h-63.9v-17.6H294.7z"/>
</g>
<g>
	<path class="st0" d="M272,54.2V20.4h21.2v33.8H327v21.2h-33.8v33.8H272V75.4h-33.8V54.2H272z"/>
</g>
<g>
	<path class="st0" d="M423.3,49.8l23.9-23.9l15,15l-23.9,23.9l23.9,23.9l-15,15l-23.9-23.9l-23.9,23.9l-15-15l23.9-23.9l-23.9-23.9
		l15-15L423.3,49.8z"/>
</g>
</svg>
