<?xml version="1.0" encoding="utf-8"?>
<!-- Generator: Adobe Illustrator 22.1.0, SVG Export Plug-In . SVG Version: 6.00 Build 0)  -->
<svg version="1.1" id="Layer_1" xmlns="http://www.w3.org/2000/svg" xmlns:xlink="http://www.w3.org/1999/xlink" x="0px" y="0px"
	 viewBox="0 0 301 256" style="enable-background:new 0 0 301 256;" xml:space="preserve">
<style type="text/css">
	.st0{fill:#1F2D3D;}
	.st1{fill:#F9FAFC;}
	.st2{fill:#78BA83;}
	.st3{fill:#79CC89;}
	.st4{fill:#FAFDFB;}
	.st5{fill:#8492A6;}
</style>
<path class="st0" d="M210,128.4c0,38.2,0,76.4,0,114.6c0,3.4-0.8,6.5-3.1,9c-2.5,2.8-5.6,4.3-9.4,4.3c-17.2,0-34.4,0-51.6,0
	c-14.4,0-28.8,0-43.1,0c-7.3,0-12.7-5.4-12.7-12.7c0-76.9,0-153.7,0-230.6c0-7.3,5.5-12.6,13-12.6c23.6,0,47.1,0,70.7,0
	c7.8,0,15.7,0,23.5,0c6,0,10.8,3.6,12.3,9.1c0.4,1.4,0.5,2.8,0.5,4.2C210,51.9,210,90.2,210,128.4z M95.3,129.7
	c0,36.7,0,73.5,0,110.2c0,1.1,0.3,1.3,1.3,1.3c35.7,0,71.4,0,107.1,0c1,0,1.2-0.3,1.2-1.2c0-73.6,0-147.2,0-220.8
	c0-0.9-0.3-1.1-1.2-1.1c-35.8,0-71.5,0-107.3,0c-0.9,0-1.1,0.3-1.1,1.2C95.3,56.1,95.3,92.9,95.3,129.7z"/>
<path class="st1" d="M95.3,129.7c0-36.8,0-73.6,0-110.5c0-0.9,0.2-1.2,1.1-1.2c35.8,0,71.5,0,107.3,0c0.9,0,1.2,0.2,1.2,1.1
	c0,73.6,0,147.2,0,220.8c0,0.9-0.2,1.2-1.2,1.2c-35.7,0-71.4,0-107.1,0c-1,0-1.3-0.2-1.3-1.3C95.3,203.2,95.3,166.5,95.3,129.7z
	 M149.9,161.1c21.9,0.2,39.9-17.6,40-39.7c0-21.9-17.4-39.8-39.6-40c-22.1-0.2-40,17.7-40.1,39.8
	C110.1,143.2,127.9,161.1,149.9,161.1z"/>
<g>
	<path class="st2" d="M149.9,161.1c-22,0-39.8-17.9-39.7-39.8c0-22.1,17.9-40,40.1-39.8c22.2,0.2,39.7,18.1,39.6,40
		C189.8,143.5,171.8,161.3,149.9,161.1z M150.1,157.8c20.3,0.1,35.9-16.3,36.5-35c0.7-21.8-16.3-38.2-36.6-38.1
		c-20.2,0-36.5,16-36.6,36.5C113.3,141.5,129.9,158.1,150.1,157.8z"/>
	<path class="st3" d="M150.1,157.8c-20.2,0.2-36.8-16.3-36.7-36.7c0.1-20.5,16.4-36.4,36.6-36.5c20.2,0,37.3,16.3,36.6,38.1
		C186,141.5,170.4,157.9,150.1,157.8z M144.3,140.3c0.3-0.1,0.5-0.3,0.7-0.5c1.3-1.3,2.6-2.7,3.9-4c7.9-8,15.8-16.1,23.7-24.1
		c0.6-0.6,0.5-1,0-1.5c-1.9-1.9-3.8-3.7-5.7-5.7c-0.7-0.7-1.1-0.6-1.7,0.1c-2.5,2.6-5.1,5.2-7.6,7.8c-4.2,4.3-8.3,8.5-12.5,12.8
		c-0.6,0.7-1,0.7-1.6,0c-2.8-2.8-5.7-5.4-8.5-8.2c-0.5-0.5-0.9-0.6-1.5,0c-1.9,2-3.9,4-5.9,5.9c-0.5,0.5-0.4,0.8,0.1,1.3
		c1.4,1.3,2.7,2.6,4.1,3.9c4,3.9,8,7.8,12,11.6C143.8,140.1,144,140.3,144.3,140.3z"/>
	<path class="st4" d="M144.3,140.3c-0.3,0-0.5-0.3-0.7-0.5c-4-3.9-8-7.8-12-11.6c-1.4-1.3-2.7-2.6-4.1-3.9c-0.5-0.5-0.6-0.8-0.1-1.3
		c2-1.9,4-3.9,5.9-5.9c0.6-0.6,1-0.5,1.5,0c2.8,2.7,5.7,5.4,8.5,8.2c0.6,0.6,1,0.6,1.6,0c4.1-4.3,8.3-8.6,12.5-12.8
		c2.5-2.6,5.1-5.2,7.6-7.8c0.6-0.7,1-0.8,1.7-0.1c1.8,1.9,3.8,3.8,5.7,5.7c0.5,0.5,0.6,0.9,0,1.5c-7.9,8-15.8,16-23.7,24.1
		c-1.3,1.3-2.6,2.7-3.9,4C144.8,140,144.6,140.3,144.3,140.3z"/>
</g>
<g>
	<rect x="106" y="173" class="st5" width="88" height="15"/>
</g>
<g>
	<path class="st1" d="M124.5,179c0.3-0.8,1-1.4,1.9-1.4c1,0,2,0.8,2,1.9c0,0.7-0.4,1.3-0.8,1.8l-1.3,1.5h2.1v1h-4v-0.7l2.2-2.4
		c0.5-0.5,0.6-0.9,0.6-1.2c0-0.4-0.3-0.8-0.8-0.8c-0.4,0-0.7,0.3-0.8,0.7L124.5,179z"/>
	<path class="st1" d="M131.5,177.6c1.6,0,2.1,1.4,2.1,3.1c0,1.7-0.6,3.1-2.1,3.1s-2.1-1.4-2.1-3.1
		C129.3,179,129.9,177.6,131.5,177.6z M131.5,178.7c-0.7,0-1,0.9-1,2.1c0,1.2,0.3,2.1,1,2.1c0.7,0,1-0.9,1-2.1
		C132.4,179.6,132.2,178.7,131.5,178.7z"/>
	<path class="st1" d="M139.2,181.5l2.3,2.3H140l-1.8-1.8v1.8h-1.1v-6.2h1.1v3.3l1.5-1.4h1.6L139.2,181.5z"/>
	<path class="st1" d="M144.4,177.7c0.7,0,1.1,0.2,1.4,0.4c0.3,0.3,0.6,0.7,0.6,1.2c0,0.4-0.2,0.8-0.4,1c0.5,0.3,0.9,0.9,0.9,1.6
		c0,0.5-0.2,1-0.6,1.3c-0.3,0.3-0.8,0.6-1.6,0.6h-2.4v-6.1H144.4z M143.5,180.1h0.8c0.4,0,0.5-0.1,0.7-0.2c0.1-0.1,0.2-0.3,0.2-0.4
		s-0.1-0.3-0.2-0.4c-0.1-0.1-0.3-0.2-0.7-0.2h-0.8V180.1z M144.7,182.8c0.4,0,0.6-0.1,0.8-0.3c0.1-0.1,0.2-0.3,0.2-0.6
		s-0.1-0.4-0.2-0.6c-0.1-0.2-0.4-0.3-0.8-0.3h-1.2v1.7H144.7z"/>
	<path class="st1" d="M148.2,183.8l2.8-6.1h1l-2.8,6.1H148.2z"/>
	<path class="st1" d="M153.4,179c0.3-0.8,1-1.4,1.9-1.4c1,0,2,0.8,2,1.9c0,0.7-0.4,1.3-0.8,1.8l-1.3,1.5h2.1v1h-4v-0.7l2.2-2.4
		c0.5-0.5,0.6-0.9,0.6-1.2c0-0.4-0.3-0.8-0.8-0.8c-0.4,0-0.7,0.3-0.8,0.7L153.4,179z"/>
	<path class="st1" d="M160.4,177.6c1.6,0,2.1,1.4,2.1,3.1c0,1.7-0.6,3.1-2.1,3.1s-2.1-1.4-2.1-3.1
		C158.2,179,158.8,177.6,160.4,177.6z M160.4,178.7c-0.7,0-1,0.9-1,2.1c0,1.2,0.3,2.1,1,2.1c0.7,0,1-0.9,1-2.1
		C161.3,179.6,161.1,178.7,160.4,178.7z"/>
	<path class="st1" d="M168.1,181.5l2.3,2.3h-1.5l-1.8-1.8v1.8H166v-6.2h1.1v3.3l1.5-1.4h1.6L168.1,181.5z"/>
	<path class="st1" d="M173.3,177.7c0.7,0,1.1,0.2,1.4,0.4c0.3,0.3,0.6,0.7,0.6,1.2c0,0.4-0.2,0.8-0.4,1c0.5,0.3,0.9,0.9,0.9,1.6
		c0,0.5-0.2,1-0.6,1.3c-0.3,0.3-0.8,0.6-1.6,0.6h-2.4v-6.1H173.3z M172.4,180.1h0.8c0.4,0,0.5-0.1,0.7-0.2c0.1-0.1,0.2-0.3,0.2-0.4
		s-0.1-0.3-0.2-0.4c-0.1-0.1-0.3-0.2-0.7-0.2h-0.8V180.1z M173.6,182.8c0.4,0,0.6-0.1,0.8-0.3c0.1-0.1,0.2-0.3,0.2-0.6
		s-0.1-0.4-0.2-0.6c-0.1-0.2-0.4-0.3-0.8-0.3h-1.2v1.7H173.6z"/>
</g>
</svg>
