<?xml version="1.0" encoding="utf-8"?>
<!-- Generator: Adobe Illustrator 22.1.0, SVG Export Plug-In . SVG Version: 6.00 Build 0)  -->
<svg version="1.1" id="Layer_1" xmlns="http://www.w3.org/2000/svg" xmlns:xlink="http://www.w3.org/1999/xlink" x="0px" y="0px"
	 viewBox="0 0 389 316" style="enable-background:new 0 0 389 316;" xml:space="preserve">
<style type="text/css">
	.st0{fill:#F9FAFC;stroke:#E5E9F2;stroke-width:2.7022;stroke-miterlimit:10;}
	.st1{clip-path:url(#SVGID_2_);}
	.st2{fill:#98CBEA;}
	.st3{fill:#1F2D3D;}
	.st4{fill:#FFFFFF;}
	.st5{fill:none;stroke:#5E5E5E;stroke-width:4.1575;stroke-miterlimit:10;}
	.st6{fill:#5E5E5E;}
	.st7{fill:#8492A6;}
	.st8{fill:#F9FAFC;stroke:#E5E9F2;stroke-width:1.216;stroke-miterlimit:10;}
	.st9{clip-path:url(#SVGID_4_);}
	.st10{fill:none;stroke:#5E5E5E;stroke-width:1.8709;stroke-miterlimit:10;}
	.st11{fill:#F9FAFC;stroke:#E5E9F2;stroke-width:0.5472;stroke-miterlimit:10;}
	.st12{clip-path:url(#SVGID_6_);}
	.st13{fill:none;stroke:#5E5E5E;stroke-width:0.8419;stroke-miterlimit:10;}
	.st14{fill:#F9FAFC;stroke:#E5E9F2;stroke-width:0.2462;stroke-miterlimit:10;}
	.st15{clip-path:url(#SVGID_8_);}
	.st16{fill:none;stroke:#5E5E5E;stroke-width:0.3789;stroke-miterlimit:10;}
	.st17{fill:#F9FAFC;stroke:#E5E9F2;stroke-width:0.1108;stroke-miterlimit:10;}
	.st18{clip-path:url(#SVGID_10_);}
	.st19{fill:none;stroke:#5E5E5E;stroke-width:0.1705;stroke-miterlimit:10;}
	.st20{fill:#F9FAFC;stroke:#E5E9F2;stroke-width:4.986286e-02;stroke-miterlimit:10;}
	.st21{clip-path:url(#SVGID_12_);}
	.st22{fill:none;stroke:#5E5E5E;stroke-width:7.671749e-02;stroke-miterlimit:10;}
</style>
<g>
	<g>
		<g>
			<rect x="22.7" y="19.3" class="st0" width="210.9" height="277.6"/>
			<g>
				<defs>
					<rect id="SVGID_1_" x="38.6" y="36.2" width="179.4" height="179.4"/>
				</defs>
				<clipPath id="SVGID_2_">
					<use xlink:href="#SVGID_1_"  style="overflow:visible;"/>
				</clipPath>
				<g class="st1">
					<rect x="3.9" y="-12.6" class="st2" width="251.2" height="236.1"/>
				</g>
			</g>
			<g>
				<path class="st3" d="M59.7,257.2h-8.1v-2.8h12.6v2l-8.7,10.9h9.4v2.8H51.1v-2L59.7,257.2z"/>
				<path class="st3" d="M83.6,270.1h-4.3l-7.8-7.7v7.7h-3.2v-23.8h3.2v14.1l6.6-6h4.5l-7.9,7.1L83.6,270.1z"/>
				<path class="st3" d="M95.3,260.2v2.7H85.3v-2.7H95.3z"/>
				<path class="st3" d="M101.3,264.2c1.4,1.7,3.3,3,5.7,3c2.2,0,4.1-1.4,4.1-3.5c0-3.6-5-4-8.1-6c-1.7-1.1-3-2.7-3-5.2
					c0-3.4,3-6.2,7.1-6.2c3,0,5.1,1.3,6.3,2.3l-2,2.4c-1.3-1.1-2.7-1.6-4.2-1.6c-1.9,0-3.9,1.1-3.9,3.2c0,3,5,3.6,8,5.6
					c1.6,1,3.1,2.7,3.1,5.4c0,4.1-3.2,6.8-7.3,6.8c-3.2,0-6.1-1.4-8.2-3.9L101.3,264.2z"/>
				<path class="st3" d="M122.2,252.9v17.2h-3.4v-23.5h2.3l14.1,17.2v-17.2h3.4v23.5h-2.3L122.2,252.9z"/>
				<path class="st3" d="M157.7,264.1h-9.9l-2.4,6h-3.5l9.7-23.5h2.3l9.7,23.5h-3.5L157.7,264.1z M149.1,260.9h7.2l-3.6-8.7
					L149.1,260.9z"/>
				<path class="st3" d="M170.2,259v11.1h-3.4v-23.5h8.2c2.1,0,3.5,0.5,4.6,1.4c1.4,1.1,2.3,2.9,2.3,4.8s-0.9,3.7-2.3,4.8
					c-0.7,0.6-1.6,1-2.7,1.2l8.4,11.2h-4.1l-8.3-11.1H170.2z M174.9,255.9c1.5,0,2.3-0.3,2.8-0.9c0.5-0.5,0.9-1.3,0.9-2.1
					s-0.3-1.6-0.9-2.1c-0.5-0.5-1.3-0.9-2.8-0.9h-4.7v6H174.9z"/>
				<path class="st3" d="M188.3,246.6h3.4v9.9l9.7-9.9h4.4l-10.6,10.9l11.3,12.6h-4.3l-10.5-11.7v11.7h-3.4V246.6z"/>
			</g>
		</g>
		<g>
			<line class="st4" x1="209.9" y1="115.8" x2="271.9" y2="128.4"/>
			<g>
				<line class="st5" x1="228.3" y1="119.6" x2="271.9" y2="128.4"/>
				<g>
					<polygon class="st6" points="229.5,133.1 209.9,115.8 234.7,107.5 					"/>
				</g>
			</g>
		</g>
		<polygon class="st7" points="271.9,81.4 271.9,175.5 361,175.5 361,100.9 341.5,81.4 		"/>
	</g>
	<g>
		<g>
			<rect x="57.7" y="58.6" class="st8" width="94.9" height="124.9"/>
			<g>
				<defs>
					<rect id="SVGID_3_" x="64.8" y="66.1" width="80.7" height="80.7"/>
				</defs>
				<clipPath id="SVGID_4_">
					<use xlink:href="#SVGID_3_"  style="overflow:visible;"/>
				</clipPath>
				<g class="st9">
					<rect x="49.2" y="44.2" class="st2" width="113" height="106.2"/>
				</g>
			</g>
			<g>
				<path class="st3" d="M74.4,165.6h-3.7v-1.3h5.7v0.9l-3.9,4.9h4.2v1.3h-6.2v-0.9L74.4,165.6z"/>
				<path class="st3" d="M85.1,171.4h-1.9l-3.5-3.5v3.5h-1.4v-10.7h1.4v6.3l3-2.7h2l-3.5,3.2L85.1,171.4z"/>
				<path class="st3" d="M90.4,167v1.2h-4.5V167H90.4z"/>
				<path class="st3" d="M93.1,168.8c0.6,0.8,1.5,1.4,2.6,1.4c1,0,1.8-0.6,1.8-1.6c0-1.6-2.2-1.8-3.6-2.7c-0.8-0.5-1.3-1.2-1.3-2.3
					c0-1.5,1.4-2.8,3.2-2.8c1.3,0,2.3,0.6,2.8,1.1l-0.9,1.1c-0.6-0.5-1.2-0.7-1.9-0.7c-0.9,0-1.8,0.5-1.8,1.4c0,1.3,2.2,1.6,3.6,2.5
					c0.7,0.5,1.4,1.2,1.4,2.4c0,1.9-1.4,3.1-3.3,3.1c-1.4,0-2.8-0.6-3.7-1.8L93.1,168.8z"/>
				<path class="st3" d="M102.5,163.7v7.8H101v-10.6h1.1l6.3,7.8v-7.8h1.5v10.6h-1.1L102.5,163.7z"/>
				<path class="st3" d="M118.4,168.7H114l-1.1,2.7h-1.6l4.4-10.6h1.1l4.4,10.6h-1.6L118.4,168.7z M114.6,167.3h3.3l-1.6-3.9
					L114.6,167.3z"/>
				<path class="st3" d="M124,166.4v5h-1.5v-10.6h3.7c1,0,1.6,0.2,2.1,0.6c0.6,0.5,1,1.3,1,2.2c0,0.9-0.4,1.7-1,2.2
					c-0.3,0.3-0.7,0.5-1.2,0.6l3.8,5H129l-3.8-5H124z M126.2,165c0.7,0,1-0.2,1.3-0.4c0.2-0.2,0.4-0.6,0.4-1c0-0.4-0.2-0.7-0.4-1
					c-0.2-0.2-0.6-0.4-1.3-0.4H124v2.7H126.2z"/>
				<path class="st3" d="M132.2,160.9h1.5v4.5l4.3-4.5h2l-4.8,4.9l5.1,5.7h-1.9l-4.7-5.3v5.3h-1.5V160.9z"/>
			</g>
		</g>
		<g>
			<line class="st4" x1="141.9" y1="102" x2="169.8" y2="107.7"/>
			<g>
				<line class="st10" x1="150.2" y1="103.7" x2="169.8" y2="107.7"/>
				<g>
					<polygon class="st6" points="150.7,109.8 141.9,102 153.1,98.3 					"/>
				</g>
			</g>
		</g>
		<polygon class="st7" points="169.8,86.5 169.8,128.8 209.9,128.8 209.9,95.3 201.1,86.5 		"/>
	</g>
	<g>
		<g>
			<rect x="73.4" y="76.2" class="st11" width="42.7" height="56.2"/>
			<g>
				<defs>
					<rect id="SVGID_5_" x="76.7" y="79.6" width="36.3" height="36.3"/>
				</defs>
				<clipPath id="SVGID_6_">
					<use xlink:href="#SVGID_5_"  style="overflow:visible;"/>
				</clipPath>
				<g class="st12">
					<rect x="69.6" y="69.8" class="st2" width="50.9" height="47.8"/>
				</g>
			</g>
			<g>
				<path class="st3" d="M80.9,124.4h-1.6v-0.6h2.5v0.4l-1.8,2.2H82v0.6h-2.8v-0.4L80.9,124.4z"/>
				<path class="st3" d="M85.8,127h-0.9l-1.6-1.6v1.6h-0.6v-4.8h0.6v2.9l1.3-1.2h0.9l-1.6,1.4L85.8,127z"/>
				<path class="st3" d="M88.1,125v0.5h-2V125H88.1z"/>
				<path class="st3" d="M89.4,125.8c0.3,0.3,0.7,0.6,1.2,0.6c0.4,0,0.8-0.3,0.8-0.7c0-0.7-1-0.8-1.6-1.2c-0.3-0.2-0.6-0.6-0.6-1
					c0-0.7,0.6-1.3,1.4-1.3c0.6,0,1,0.3,1.3,0.5l-0.4,0.5c-0.3-0.2-0.5-0.3-0.8-0.3c-0.4,0-0.8,0.2-0.8,0.6c0,0.6,1,0.7,1.6,1.1
					c0.3,0.2,0.6,0.5,0.6,1.1c0,0.8-0.6,1.4-1.5,1.4c-0.7,0-1.2-0.3-1.7-0.8L89.4,125.8z"/>
				<path class="st3" d="M93.6,123.5v3.5h-0.7v-4.8h0.5l2.9,3.5v-3.5h0.7v4.8h-0.5L93.6,123.5z"/>
				<path class="st3" d="M100.8,125.8h-2l-0.5,1.2h-0.7l2-4.8h0.5l2,4.8h-0.7L100.8,125.8z M99,125.1h1.5l-0.7-1.8L99,125.1z"/>
				<path class="st3" d="M103.3,124.8v2.2h-0.7v-4.8h1.7c0.4,0,0.7,0.1,0.9,0.3c0.3,0.2,0.5,0.6,0.5,1c0,0.4-0.2,0.7-0.5,1
					c-0.1,0.1-0.3,0.2-0.6,0.3l1.7,2.3h-0.8l-1.7-2.2H103.3z M104.2,124.1c0.3,0,0.5-0.1,0.6-0.2c0.1-0.1,0.2-0.3,0.2-0.4
					c0-0.2-0.1-0.3-0.2-0.4c-0.1-0.1-0.3-0.2-0.6-0.2h-1v1.2H104.2z"/>
				<path class="st3" d="M107,122.3h0.7v2l2-2h0.9l-2.1,2.2l2.3,2.5h-0.9l-2.1-2.4v2.4H107V122.3z"/>
			</g>
		</g>
		<g>
			<line class="st4" x1="111.3" y1="95.8" x2="123.9" y2="98.3"/>
			<g>
				<line class="st13" x1="115.1" y1="96.5" x2="123.9" y2="98.3"/>
				<g>
					<polygon class="st6" points="115.3,99.3 111.3,95.8 116.4,94.1 					"/>
				</g>
			</g>
		</g>
		<polygon class="st7" points="123.9,88.8 123.9,107.8 141.9,107.8 141.9,92.7 138,88.8 		"/>
	</g>
	<g>
		<g>
			<rect x="80.5" y="84.2" class="st14" width="19.2" height="25.3"/>
			<g>
				<defs>
					<rect id="SVGID_7_" x="82" y="85.7" width="16.3" height="16.3"/>
				</defs>
				<clipPath id="SVGID_8_">
					<use xlink:href="#SVGID_7_"  style="overflow:visible;"/>
				</clipPath>
				<g class="st15">
					<rect x="78.8" y="81.3" class="st2" width="22.9" height="21.5"/>
				</g>
			</g>
			<g>
				<path class="st3" d="M83.9,105.8h-0.7v-0.3h1.1v0.2l-0.8,1h0.9v0.3h-1.3v-0.2L83.9,105.8z"/>
				<path class="st3" d="M86.1,107h-0.4l-0.7-0.7v0.7h-0.3v-2.2H85v1.3l0.6-0.5H86l-0.7,0.6L86.1,107z"/>
				<path class="st3" d="M87.1,106.1v0.2h-0.9v-0.2H87.1z"/>
				<path class="st3" d="M87.7,106.5c0.1,0.2,0.3,0.3,0.5,0.3c0.2,0,0.4-0.1,0.4-0.3c0-0.3-0.5-0.4-0.7-0.5
					c-0.2-0.1-0.3-0.2-0.3-0.5c0-0.3,0.3-0.6,0.6-0.6c0.3,0,0.5,0.1,0.6,0.2l-0.2,0.2c-0.1-0.1-0.2-0.1-0.4-0.1
					c-0.2,0-0.4,0.1-0.4,0.3c0,0.3,0.5,0.3,0.7,0.5c0.1,0.1,0.3,0.2,0.3,0.5c0,0.4-0.3,0.6-0.7,0.6c-0.3,0-0.6-0.1-0.7-0.4
					L87.7,106.5z"/>
				<path class="st3" d="M89.6,105.5v1.6h-0.3v-2.1h0.2l1.3,1.6v-1.6h0.3v2.1h-0.2L89.6,105.5z"/>
				<path class="st3" d="M92.8,106.5h-0.9l-0.2,0.5h-0.3l0.9-2.1h0.2l0.9,2.1H93L92.8,106.5z M92,106.2h0.7l-0.3-0.8L92,106.2z"/>
				<path class="st3" d="M94,106v1h-0.3v-2.1h0.7c0.2,0,0.3,0,0.4,0.1c0.1,0.1,0.2,0.3,0.2,0.4c0,0.2-0.1,0.3-0.2,0.4
					c-0.1,0.1-0.1,0.1-0.3,0.1l0.8,1H95l-0.8-1H94z M94.4,105.7c0.1,0,0.2,0,0.3-0.1s0.1-0.1,0.1-0.2s0-0.1-0.1-0.2
					s-0.1-0.1-0.3-0.1H94v0.5H94.4z"/>
				<path class="st3" d="M95.6,104.9h0.3v0.9l0.9-0.9h0.4l-1,1l1,1.1h-0.4l-1-1.1v1.1h-0.3V104.9z"/>
			</g>
		</g>
		<g>
			<line class="st4" x1="97.6" y1="93" x2="103.2" y2="94.1"/>
			<g>
				<line class="st16" x1="99.3" y1="93.3" x2="103.2" y2="94.1"/>
				<g>
					<polygon class="st6" points="99.4,94.5 97.6,93 99.8,92.2 					"/>
				</g>
			</g>
		</g>
		<polygon class="st7" points="103.2,89.8 103.2,98.4 111.3,98.4 111.3,91.6 109.6,89.8 		"/>
	</g>
	<g>
		<g>
			<rect x="83.7" y="87.7" class="st17" width="8.6" height="11.4"/>
			<g>
				<defs>
					<rect id="SVGID_9_" x="84.4" y="88.4" width="7.4" height="7.4"/>
				</defs>
				<clipPath id="SVGID_10_">
					<use xlink:href="#SVGID_9_"  style="overflow:visible;"/>
				</clipPath>
				<g class="st18">
					<rect x="82.9" y="86.4" class="st2" width="10.3" height="9.7"/>
				</g>
			</g>
			<g>
				<path class="st3" d="M85.2,97.5h-0.3v-0.1h0.5v0.1L85,97.9h0.4V98h-0.6v-0.1L85.2,97.5z"/>
				<path class="st3" d="M86.2,98H86l-0.3-0.3V98h-0.1v-1h0.1v0.6l0.3-0.2h0.2l-0.3,0.3L86.2,98z"/>
				<path class="st3" d="M86.7,97.6v0.1h-0.4v-0.1H86.7z"/>
				<path class="st3" d="M86.9,97.8c0.1,0.1,0.1,0.1,0.2,0.1c0.1,0,0.2-0.1,0.2-0.1c0-0.1-0.2-0.2-0.3-0.2c-0.1,0-0.1-0.1-0.1-0.2
					c0-0.1,0.1-0.3,0.3-0.3c0.1,0,0.2,0.1,0.3,0.1l-0.1,0.1c-0.1,0-0.1-0.1-0.2-0.1c-0.1,0-0.2,0-0.2,0.1c0,0.1,0.2,0.1,0.3,0.2
					c0.1,0,0.1,0.1,0.1,0.2c0,0.2-0.1,0.3-0.3,0.3C87,98,86.9,98,86.9,97.8L86.9,97.8z"/>
				<path class="st3" d="M87.8,97.3V98h-0.1v-1h0.1l0.6,0.7v-0.7h0.1v1h-0.1L87.8,97.3z"/>
				<path class="st3" d="M89.2,97.8h-0.4L88.7,98h-0.1l0.4-1h0.1l0.4,1h-0.1L89.2,97.8z M88.9,97.7h0.3L89,97.3L88.9,97.7z"/>
				<path class="st3" d="M89.8,97.6V98h-0.1v-1H90c0.1,0,0.1,0,0.2,0.1c0.1,0,0.1,0.1,0.1,0.2c0,0.1,0,0.2-0.1,0.2
					c0,0-0.1,0-0.1,0.1l0.3,0.5h-0.2l-0.3-0.5H89.8z M89.9,97.4c0.1,0,0.1,0,0.1,0s0-0.1,0-0.1c0,0,0-0.1,0-0.1s-0.1,0-0.1,0h-0.2
					v0.2H89.9z"/>
				<path class="st3" d="M90.5,97.1h0.1v0.4l0.4-0.4h0.2l-0.4,0.4l0.5,0.5h-0.2l-0.4-0.5V98h-0.1V97.1z"/>
			</g>
		</g>
		<g>
			<line class="st4" x1="91.4" y1="91.7" x2="93.9" y2="92.2"/>
			<g>
				<line class="st19" x1="92.1" y1="91.9" x2="93.9" y2="92.2"/>
				<g>
					<polygon class="st6" points="92.2,92.4 91.4,91.7 92.4,91.4 					"/>
				</g>
			</g>
		</g>
		<polygon class="st7" points="93.9,90.3 93.9,94.1 97.6,94.1 97.6,91.1 96.8,90.3 		"/>
	</g>
	<g>
		<g>
			<rect x="85.1" y="89.4" class="st20" width="3.9" height="5.1"/>
			<g>
				<defs>
					<rect id="SVGID_11_" x="85.4" y="89.7" width="3.3" height="3.3"/>
				</defs>
				<clipPath id="SVGID_12_">
					<use xlink:href="#SVGID_11_"  style="overflow:visible;"/>
				</clipPath>
				<g class="st21">
					<rect x="84.8" y="88.8" class="st2" width="4.6" height="4.4"/>
				</g>
			</g>
			<g>
				<path class="st3" d="M85.8,93.7h-0.2v-0.1L85.8,93.7L85.8,93.7l-0.1,0.2h0.2V94h-0.3v0L85.8,93.7z"/>
				<path class="st3" d="M86.3,94L86.3,94L86,93.8V94H86v-0.4H86v0.3l0.1-0.1h0.1l-0.1,0.1L86.3,94z"/>
				<path class="st3" d="M86.5,93.8L86.5,93.8l-0.2,0.1v-0.1H86.5z"/>
				<path class="st3" d="M86.6,93.9c0,0,0.1,0.1,0.1,0.1c0,0,0.1,0,0.1-0.1c0-0.1-0.1-0.1-0.2-0.1c0,0-0.1-0.1-0.1-0.1
					c0-0.1,0.1-0.1,0.1-0.1c0.1,0,0.1,0,0.1,0l0,0c0,0-0.1,0-0.1,0c0,0-0.1,0-0.1,0.1c0,0.1,0.1,0.1,0.1,0.1c0,0,0.1,0,0.1,0.1
					c0,0.1-0.1,0.1-0.1,0.1C86.6,94,86.6,94,86.6,93.9L86.6,93.9z"/>
				<path class="st3" d="M87,93.7V94h-0.1v-0.4h0l0.3,0.3v-0.3h0.1V94h0L87,93.7z"/>
				<path class="st3" d="M87.6,93.9h-0.2l0,0.1h-0.1l0.2-0.4h0l0.2,0.4h-0.1L87.6,93.9z M87.5,93.8h0.1l-0.1-0.2L87.5,93.8z"/>
				<path class="st3" d="M87.9,93.8V94h-0.1v-0.4H88c0,0,0.1,0,0.1,0c0,0,0,0.1,0,0.1s0,0.1,0,0.1c0,0,0,0-0.1,0l0.2,0.2h-0.1
					L87.9,93.8L87.9,93.8z M87.9,93.7C88,93.7,88,93.7,87.9,93.7C88,93.7,88,93.7,87.9,93.7C88,93.6,88,93.6,87.9,93.7
					c0-0.1,0-0.1,0-0.1h-0.1L87.9,93.7L87.9,93.7z"/>
				<path class="st3" d="M88.2,93.5L88.2,93.5l0.1,0.2l0.2-0.2h0.1l-0.2,0.2l0.2,0.2h-0.1l-0.2-0.2V94h-0.1V93.5z"/>
			</g>
		</g>
		<g>
			<line class="st4" x1="88.6" y1="91.1" x2="89.7" y2="91.4"/>
			<g>
				<line class="st22" x1="88.9" y1="91.2" x2="89.7" y2="91.4"/>
				<g>
					<polygon class="st6" points="89,91.5 88.6,91.1 89.1,91 					"/>
				</g>
			</g>
		</g>
		<polygon class="st7" points="89.7,90.5 89.7,92.2 91.4,92.2 91.4,90.9 91,90.5 		"/>
		<g>
			<polygon class="st4" points="87.9,91.5 87.9,90.7 88.4,90.8 88.6,90.9 88.6,91.5 			"/>
			<path d="M88.4,90.8l0.2,0.2v0.6h-0.7v-0.8H88.4 M88.4,90.7h-0.6v0.8h0.7v-0.6L88.4,90.7L88.4,90.7z"/>
		</g>
	</g>
</g>
</svg>
